PathFileType	4	(X/Y/Z)	C:/Users/Carlo/Dropbox/Carlos/SARAH/CongressoMarcha2025/WorkshopOpenSim/C3D/Caso02/Walking04.c3d.trc
DataRate	CameraRate	NumFrames	NumMarkers	Units	OrigDataRate	OrigDataStartFrame	OrigNumFrames
100.000000	100.000000	2	197	mm	100.000000	120	321
Frame#	Time	LFHD			RFHD			LBHD			RBHD			C7			STRN			LSHO			LUPA			LELB			LFRM			LWRA			LFIN			RSHO			RUPA			RELB			RFRM			RWRA			RWRB			RFIN			RASI			LANK			LHEE			LTOE			RTHI			RKNE			RTIB			RANK			RHEE			RTOE			PELO			PELA			PELL			PELP			LFEO			LFEA			LFEL			LFEP			LTIO			LTIA			LTIL			LTIP			LFOO			LFOA			LFOL			LFOP			RFEO			RFEA			RFEL			RFEP			RTIO			RTIA			RTIL			RTIP			RFOO			RFOA			RFOL			RFOP			LTOO			LTOA			LTOL			LTOP			RTOO			RTOA			RTOL			RTOP			HEDO			HEDA			HEDL			HEDP			LCLO			LCLA			LCLL			LCLP			RCLO			RCLA			RCLL			RCLP			TRXO			TRXA			TRXL			TRXP			LHUO			LHUA			LHUL			LHUP			LRAO			LRAA			LRAL			LRAP			LHNO			LHNA			LHNL			LHNP			RHUO			RHUA			RHUL			RHUP			RRAO			RRAA			RRAL			RRAP			RHNO			RHNA			RHNL			RHNP			LWRB			LTIB			LASI			LTHI			LKNE			RPSI			CLAV			RBAK			LPSI			T10			LHipAngles			LKneeAngles			LAbsAnkleAngle			LAnkleAngles			RHipAngles			RKneeAngles			RAnkleAngles			RAbsAnkleAngle			LPelvisAngles			RPelvisAngles			LFootProgressAngles			RFootProgressAngles			RNeckAngles			LNeckAngles			RSpineAngles			LSpineAngles			LShoulderAngles			LElbowAngles			LWristAngles			RShoulderAngles			RElbowAngles			RWristAngles			RThoraxAngles			LThoraxAngles			RHeadAngles			LHeadAngles			LHipPower			LKneePower			LAnklePower			RHipPower			RKneePower			RAnklePower			LWaistPower			RWaistPower			LNeckPower			RNeckPower			LShoulderPower			RShoulderPower			LElbowPower			RElbowPower			LWristPower			RWristPower			LGroundReactionForce			LNormalisedGRF			RGroundReactionForce			RNormalisedGRF			LAnkleForce			RAnkleForce			RKneeForce			LKneeForce			RHipForce			LHipForce			LWaistForce			RWaistForce			LNeckForce			RNeckForce			LShoulderForce			RShoulderForce			LElbowForce			RElbowForce			LWristForce			RWristForce			LGroundReactionMoment			RGroundReactionMoment			LAnkleMoment			RAnkleMoment			RKneeMoment			LKneeMoment			RHipMoment			LHipMoment			LWaistMoment			RWaistMoment			LNeckMoment			RNeckMoment			LShoulderMoment			RShoulderMoment			LElbowMoment			RElbowMoment			LWristMoment			RWristMoment			CentreOfMass			CentreOfMassFloor			
		X1	Y1	Z1	X2	Y2	Z2	X3	Y3	Z3	X4	Y4	Z4	X5	Y5	Z5	X6	Y6	Z6	X7	Y7	Z7	X8	Y8	Z8	X9	Y9	Z9	X10	Y10	Z10	X11	Y11	Z11	X12	Y12	Z12	X13	Y13	Z13	X14	Y14	Z14	X15	Y15	Z15	X16	Y16	Z16	X17	Y17	Z17	X18	Y18	Z18	X19	Y19	Z19	X20	Y20	Z20	X21	Y21	Z21	X22	Y22	Z22	X23	Y23	Z23	X24	Y24	Z24	X25	Y25	Z25	X26	Y26	Z26	X27	Y27	Z27	X28	Y28	Z28	X29	Y29	Z29	X30	Y30	Z30	X31	Y31	Z31	X32	Y32	Z32	X33	Y33	Z33	X34	Y34	Z34	X35	Y35	Z35	X36	Y36	Z36	X37	Y37	Z37	X38	Y38	Z38	X39	Y39	Z39	X40	Y40	Z40	X41	Y41	Z41	X42	Y42	Z42	X43	Y43	Z43	X44	Y44	Z44	X45	Y45	Z45	X46	Y46	Z46	X47	Y47	Z47	X48	Y48	Z48	X49	Y49	Z49	X50	Y50	Z50	X51	Y51	Z51	X52	Y52	Z52	X53	Y53	Z53	X54	Y54	Z54	X55	Y55	Z55	X56	Y56	Z56	X57	Y57	Z57	X58	Y58	Z58	X59	Y59	Z59	X60	Y60	Z60	X61	Y61	Z61	X62	Y62	Z62	X63	Y63	Z63	X64	Y64	Z64	X65	Y65	Z65	X66	Y66	Z66	X67	Y67	Z67	X68	Y68	Z68	X69	Y69	Z69	X70	Y70	Z70	X71	Y71	Z71	X72	Y72	Z72	X73	Y73	Z73	X74	Y74	Z74	X75	Y75	Z75	X76	Y76	Z76	X77	Y77	Z77	X78	Y78	Z78	X79	Y79	Z79	X80	Y80	Z80	X81	Y81	Z81	X82	Y82	Z82	X83	Y83	Z83	X84	Y84	Z84	X85	Y85	Z85	X86	Y86	Z86	X87	Y87	Z87	X88	Y88	Z88	X89	Y89	Z89	X90	Y90	Z90	X91	Y91	Z91	X92	Y92	Z92	X93	Y93	Z93	X94	Y94	Z94	X95	Y95	Z95	X96	Y96	Z96	X97	Y97	Z97	X98	Y98	Z98	X99	Y99	Z99	X100	Y100	Z100	X101	Y101	Z101	X102	Y102	Z102	X103	Y103	Z103	X104	Y104	Z104	X105	Y105	Z105	X106	Y106	Z106	X107	Y107	Z107	X108	Y108	Z108	X109	Y109	Z109	X110	Y110	Z110	X111	Y111	Z111	X112	Y112	Z112	X113	Y113	Z113	X114	Y114	Z114	X115	Y115	Z115	X116	Y116	Z116	X117	Y117	Z117	X118	Y118	Z118	X119	Y119	Z119	X120	Y120	Z120	X121	Y121	Z121	X122	Y122	Z122	X123	Y123	Z123	X124	Y124	Z124	X125	Y125	Z125	X126	Y126	Z126	X127	Y127	Z127	X128	Y128	Z128	X129	Y129	Z129	X130	Y130	Z130	X131	Y131	Z131	X132	Y132	Z132	X133	Y133	Z133	X134	Y134	Z134	X135	Y135	Z135	X136	Y136	Z136	X137	Y137	Z137	X138	Y138	Z138	X139	Y139	Z139	X140	Y140	Z140	X141	Y141	Z141	X142	Y142	Z142	X143	Y143	Z143	X144	Y144	Z144	X145	Y145	Z145	X146	Y146	Z146	X147	Y147	Z147	X148	Y148	Z148	X149	Y149	Z149	X150	Y150	Z150	X151	Y151	Z151	X152	Y152	Z152	X153	Y153	Z153	X154	Y154	Z154	X155	Y155	Z155	X156	Y156	Z156	X157	Y157	Z157	X158	Y158	Z158	X159	Y159	Z159	X160	Y160	Z160	X161	Y161	Z161	X162	Y162	Z162	X163	Y163	Z163	X164	Y164	Z164	X165	Y165	Z165	X166	Y166	Z166	X167	Y167	Z167	X168	Y168	Z168	X169	Y169	Z169	X170	Y170	Z170	X171	Y171	Z171	X172	Y172	Z172	X173	Y173	Z173	X174	Y174	Z174	X175	Y175	Z175	X176	Y176	Z176	X177	Y177	Z177	X178	Y178	Z178	X179	Y179	Z179	X180	Y180	Z180	X181	Y181	Z181	X182	Y182	Z182	X183	Y183	Z183	X184	Y184	Z184	X185	Y185	Z185	X186	Y186	Z186	X187	Y187	Z187	X188	Y188	Z188	X189	Y189	Z189	X190	Y190	Z190	X191	Y191	Z191	X192	Y192	Z192	X193	Y193	Z193	X194	Y194	Z194	X195	Y195	Z195	X196	Y196	Z196	X197	Y197	Z197	

121	1.2	7.61287879943848	1699.202270507813	303.8327026367189	5.100771903991701	1694.701660156251	176.4885406494141	162.3073272705079	1678.178710937501	300.3152465820314	145.1581268310547	1681.593261718751	159.3142547607422	200.7796478271486	1498.233764648438	221.2324371337892	13.45537090301514	1258.298828125	247.4209594726564	180.2937316894532	1440.104370117188	433.3959655761721	204.2493896484376	1277.988525390625	483.3377990722659	247.1944122314454	1109.4853515625	497.6283264160159	229.3028411865236	984.265502929688	528.8169555664065	146.4415588378907	859.171020507813	509.8621215820315	168.0977478027344	778.4733886718755	560.3325805664065	114.1785202026368	1433.53857421875	20.16299629211426	75.36527252197268	1229.052734375	-52.07703399658206	53.42310714721683	1111.37744140625	-74.80824279785159	-71.54587554931643	1031.724731445313	-64.20220947265628	-163.9790191650391	955.1748657226567	-18.06219863891602	-113.9526062011719	907.1718750000005	-53.28585052490237	-202.3429718017579	883.3671875000005	-56.25361251831058	68.35920715332034	1011.780883789063	142.7718811035157	-141.2813262939454	96.42274475097662	428.0873718261721	-110.2431411743165	41.66905975341798	380.9966430664064	-285.3453063964845	112.9402084350587	396.0146484375002	158.7102203369141	646.4968261718752	109.2341537475587	208.3359527587892	496.0072021484377	143.0793609619141	294.0781860351564	256.7893676757814	133.3613586425782	357.9602661132814	84.25849914550784	151.3673248291016	428.5742187500002	57.34315109252933	195.3311157226564	226.9572296142579	41.72163391113283	194.2140960693361	122.8333206176758	912.691772460938	249.3286895751954	-7.033958435058597	911.3037719726567	254.5356597900392	128.0359497070313	913.1237182617192	379.2028808593751	121.4291076660157	1042.662719726563	248.9526824951173	-2.192147731781007	516.422790527344	353.6911621093751	-397.1524047851565	637.6605224609377	287.6776123046876	-53.28694152832034	573.899841308594	764.9522705078127	126.0486679077149	912.7153320312505	314.2386169433595	-151.3984985351563	96.82798767089849	384.2413024902346	-540.3718872070315	241.7778167724611	475.3335571289065	-55.85205078125003	93.00088500976565	798.3244018554692	-9.345214843750004	496.3070068359377	355.155731201172	-277.2786865234376	132.9256591796876	403.3207092285159	-211.2424621582032	305.4039001464845	396.1445312500002	-266.0205383300782	136.2897033691407	587.7738037109377	-105.0187225341797	66.58589172363284	394.0166625976565	227.1334533691407	503.1328735351565	200.1418762207032	-160.9846496582032	406.6114196777346	340.0484619140626	358.7794799804689	553.036804199219	599.7727661132815	119.6179733276368	912.6681518554692	184.4187469482422	368.3881835937501	87.26460266113284	195.0390930175782	-15.21725463867188	-44.26661682128908	295.689910888672	465.213073730469	115.1767654418946	600.5388183593752	234.0156097412111	482.8712158203127	199.8932952880861	235.1574707031251	63.82233047485354	179.5112304687501	219.2888946533204	253.3270721435548	181.1725158691407	231.0223999023439	61.80942153930667	369.6307983398439	424.6243591308596	79.65016937255862	183.7997131347657	-334.6986694335939	155.0388946533204	406.4220886230471	-312.6866149902345	212.5316467285157	404.0300598144534	-330.9459533691407	156.1602325439454	467.9064636230471	-277.2786865234376	132.9256591796876	403.320739746094	172.0018463134766	58.54639816284183	178.0817565917969	166.7123260498047	121.7146606445313	178.6355285644532	170.6234741210938	57.87541580200198	241.4549865722657	235.1574859619142	63.82233810424808	179.5112609863282	187.4907836914063	1607.444824218751	227.7425079345704	-37.39782714843751	1633.486694335938	243.5297851562501	203.4961547851564	1608.427734375001	454.1164550781252	213.3992156982423	1832.884765625001	224.9318389892579	175.2562713623047	1383.653076171875	421.0729064941409	-12.85119628906251	1376.151123046875	532.3342285156252	194.2490386962892	1596.491821289063	467.534606933594	65.37165832519534	1433.283081054688	238.6393432617189	113.4179229736329	1377.560791015625	35.3251419067383	-97.37484741210943	1367.6669921875	-11.77699279785157	110.5824127197266	1168.880981445313	91.84786224365237	65.37153625488284	1433.282958984375	238.6392822265626	65.37158966064456	1433.282958984375	238.639373779297	-150.8812866210938	1423.744995117188	259.3071289062501	45.03524017333986	1425.545166015625	22.28320312500001	75.5971374511719	1216.1826171875	245.4426116943361	261.1312866210939	1108.540893554688	456.4322204589846	535.7497558593752	1187.663208007813	405.0917968750002	222.1228485107423	1059.915161132813	172.8385925292969	175.2562561035157	1383.653076171875	421.0729064941409	184.4283294677735	848.175170898438	511.6257019042971	429.5181579589846	771.6089477539067	491.0418090820315	149.8223266601563	805.0371704101567	260.0374145507814	255.7621307373048	1090.3154296875	460.2957153320315	158.8097229003907	692.408630371094	562.3206176757815	136.7720031738282	746.5305786132815	717.4807739257815	321.1289672851564	675.1721801757815	591.3874511718752	184.4283752441407	848.175170898438	511.6258239746096	78.111442565918	1099.014038085938	-41.19449996948244	355.4659118652345	1087.870727539063	-128.603012084961	-2.621917724609376	1182.546142578125	-308.0173339843751	113.4179077148438	1377.560546875	35.32509231567384	-136.9196472167969	928.732055664063	-29.44082260131837	5.140258789062502	742.3452148437502	-130.7750244140626	-207.7512207031251	1002.019104003907	-263.5381774902345	63.05923461914065	1087.094360351563	-40.37176513671876	-254.1421661376954	819.6296997070317	-38.60488128662111	-297.9153137207032	878.6372680664067	-181.1896667480469	-354.497528076172	921.3312988281255	34.29232025146486	-136.9196319580079	928.732055664063	-29.44078636169435	220.3214721679689	840.9932250976567	526.6961059570315	-55.10129547119143	320.4492797851564	439.6046447753909	77.03074645996097	1012.500793457032	359.2409667968751	54.54483795166018	753.1646118164065	449.0229187011721	-9.580558776855472	524.734069824219	413.1603088378909	259.3859252929689	1012.379150390625	174.1498260498047	58.41003799438479	1432.975952148438	239.3046875000001	275.798309326172	1333.412719726563	164.3124694824219	262.7982482910157	1015.927124023438	311.8753662109376	266.1970825195314	1238.46435546875	226.7303314208986	-4.519820213317873	11.24949741363526	18.73174476623536	1.205549359321595	-21.67896461486817	-1.854684472084046	0	0	1.284365773200989	-1.980458855628968	9.423029899597172	1.30193042755127	2.52318286895752	17.02530097961426	-14.00218963623048	-1.292252898216248	-5.459990978240969	4.746945381164553	3.305815935134889	-14.96993350982667	14.46641731262208	0	0	13.96529388427735	0.1657407730817795	-2.295898199081422	0.6189938783645632	-0.1657407730817795	2.295898199081422	0.6189938783645632	-2.227988004684449	-2.885471582412721	-111.0623779296876	-0.5006390213966372	-1.292136907577515	-85.22468566894534	-1.730643391609193	1.403396606445313	-9.152615547180179	1.730643391609193	-1.403396606445313	-9.152615547180179	1.816222429275514	-3.094937801361086	1.914530396461488	-1.816222429275514	3.094937801361086	1.914530396461488	6.811547279357914	-2.84194564819336	-13.94500732421876	0	-3.498610296327581e-14	33.59252929687501	6.923339366912845	106.7044143676758	-6.234215259552006	18.05786132812501	10.24468994140625	7.911747932434086	1.590277359294756e-15	-2.02601325473284e-12	47.35640716552736	3.433237791061403	93.5107116699219	-6.476646423339847	-1.792892813682557	5.456703662872316	2.696682453155518	1.792892813682557	-5.456703662872316	2.696682453155518	-0.7096315026283266	3.989345312118532	6.555884361267093	0.7096315026283266	-3.989345312118532	6.555884361267093	0	-0.08827929198741916	0	0	-0.7412401437759402	0	0	-0.03521195799112321	0	0	-0.4816705584526064	0	0	0.2033188790082933	0	0	-1.53606402873993	0	0	-0.1610001027584076	0	0	-0.1610001027584076	0	0	-0.007643305696547035	0	0	-0.007643305696547035	0	0	-0.002096284646540881	0	0	-0.0103065837174654	0	0	-0.009063762612640861	0	0	-0.0003050940576940776	0	0	-0.0004604193381965163	0	0	3.702873436850497e-05	0	nan	nan	nan	nan	nan	nan	-0.5159177780151369	10.95342826843262	0.6035311818122866	-6.152203559875492	111.655746459961	-5.259100437164308	0.02420623600482942	-0.1944599896669389	-0.1527332216501237	-0.5050335526466372	0.410509377717972	10.79190540313721	-1.155975699424744	-9.828315734863285	2.775942325592042	0.3272500932216645	0.7396143078804018	-0.4112778007984164	-1.673975944519044	-8.867743492126468	1.980231523513795	0.4720103144645693	1.702875614166261	-0.3079987466335298	-0.5093172788619997	-6.127785682678226	-0.2239335030317308	-0.5093172788619997	-6.127785682678226	-0.2239335030317308	-0.2464794516563417	-1.480048775672913	0.09222795069217685	-0.2464794516563417	-1.480048775672913	0.09222795069217685	-0.09598623216152197	0.5011938214302065	0.05259701982140544	0.05190011113882068	0.4553469717502596	0.07087952643632892	-0.03699157014489175	0.1991038620471955	-0.1100832074880601	0.003960723523050548	0.1792028546333314	-0.07897273451089862	-0.02195372991263867	0.05680290609598163	0.0220155492424965	0.00422109290957451	0.04996026307344439	0.004499602131545545	nan	nan	nan	493.1550292968752	47.82435607910158	-259.4018859863282	1.515824539659642e-15	20.54290390014649	-2.813794136047364	-8.526824951171879	81.08150482177737	1546.159667968751	82.51389312744143	63.34994125366214	-285.4135131835939	29.0345802307129	20.61473083496094	-247.9364318847657	763.7966308593752	65.12849426269534	-556.4909667968752	90.55262756347659	13.43791294097901	464.8181457519534	249.9567413330079	-203.2426910400392	-242.1641082763673	-249.9567413330079	203.2426910400392	-242.1641082763673	31.20115852355958	-126.3204040527344	77.87023925781253	-31.20115852355958	126.3204040527344	77.87023925781253	22.63993835449219	-2.969077348709107	-11.93292427062989	2.004974603652955	-0.2812491655349733	25.00710296630861	5.853005409240724	0.3232807517051698	-21.13779449462891	0.4117981195449831	0.03197656199336053	-6.27664947509766	1.533406972885133	1.61056358662326e-15	1.409514904022217	-0.09828072786331182	4.736951686436382e-17	0.3194931149482728	123.3772583007813	995.335815429688	248.6107025146486	123.3772583007813	0	248.6107025146486	
122	1.21	-4.037091732025148	1697.095825195313	306.2888793945314	-6.348143100738529	1692.705444335938	178.9196319580079	150.6488800048829	1676.029174804688	303.0584106445314	133.7604217529297	1679.531250000001	162.0335693359376	189.0341796875001	1496.12548828125	223.8305511474611	1.529950499534608	1256.190673828125	249.0824127197267	168.3484649658204	1437.35009765625	435.778991699219	191.9691619873047	1275.027709960938	485.2523498535159	234.6562805175782	1106.441284179688	499.1076354980471	217.2103576660157	981.126831054688	529.8260498046877	134.9715728759766	855.714721679688	510.3061218261721	156.8350830078126	774.8634643554692	560.3226318359377	102.8884735107422	1431.668212890625	22.4822006225586	63.75260543823245	1227.329345703125	-49.71470642089847	41.33188629150392	1109.74072265625	-72.60168457031253	-83.80881500244143	1030.309814453125	-61.77220535278323	-176.1861724853516	953.8201293945317	-15.469220161438	-126.4455795288087	905.849731445313	-51.15068435668948	-214.9238891601564	882.4057617187505	-53.87521743774417	57.53566741943362	1009.537963867188	143.5798645019532	-165.7522277832032	98.35703277587896	429.7267150878909	-135.2597045898438	42.13795089721681	383.715545654297	-308.6362915039064	117.9251556396485	394.1942443847659	149.9084777832032	644.6317138671877	109.898063659668	200.6354217529298	494.379333496094	143.8398132324219	290.0679931640626	256.544647216797	133.8613281250001	357.078338623047	85.15269470214847	151.0997161865235	428.2429809570315	59.19913864135745	194.9510192871095	226.8476104736329	41.75589752197267	194.1722869873048	111.3850021362305	910.3598022460942	250.2976684570314	-18.51604461669923	908.6665039062505	254.4686126708986	115.5538940429688	910.5437622070317	380.2096557617189	109.6866836547852	1040.327758789063	250.1681213378907	-14.36151790618897	514.438415527344	353.4211730957032	-408.6192016601565	635.957214355469	286.8909606933595	-66.27307891845706	570.9180297851565	764.2099609375002	114.084083557129	910.2609252929692	315.2310180664064	-175.549057006836	98.73408508300787	385.8077087402346	-561.586853027344	255.2320251464845	473.2630615234377	-82.88520812988284	95.16772460937503	801.2182617187505	-22.07769775390626	494.538269042969	354.9715576171876	-300.9754638671876	137.8802490234376	401.5773925781252	-230.8001708984376	308.7255859375001	394.6268615722659	-294.0342407226564	142.5407867431641	586.2152099609377	-130.1297302246094	67.51575469970706	396.9307556152346	219.2365722656251	501.5867919921877	200.9563751220704	-168.6267089843751	402.0125427246096	339.8369140625001	349.5491943359376	552.0796508789065	601.093688964844	108.685905456543	910.4586791992192	185.3643188476563	367.785858154297	88.3408126831055	194.6908416748048	-12.59375000000001	-49.96404266357425	298.2407226562501	467.1943054199221	117.9391555786133	599.3898925781252	226.4749603271486	481.4504699707034	200.651092529297	234.7096557617189	63.86320114135745	179.4384765625001	217.3857727050782	253.2411956787111	181.0066223144532	230.9604339599611	61.94588088989261	369.5670471191407	424.0570373535159	81.15193176269534	183.346664428711	-357.924041748047	161.3350830078126	403.1263122558596	-334.5322570800782	218.2835540771486	400.8094787597659	-355.6102600097657	162.8885803222657	464.6722412109377	-300.9754638671876	137.8802490234376	401.5774230957034	171.5938415527344	58.10029602050784	178.135726928711	165.8191986083985	121.2263183593751	178.6584625244141	170.3441009521485	57.46117782592776	241.5119476318361	234.7096710205079	63.86322784423831	179.438461303711	175.9295654296876	1605.327636718751	230.4941864013673	-48.98004150390628	1631.451171875001	245.8418579101564	191.4751434326172	1606.151977539063	456.9008789062502	201.9358520507814	1830.758789062501	227.8877563476564	163.3051910400391	1380.939453125	423.2729187011721	-24.93391418457033	1373.117919921875	534.4630126953127	182.3273468017579	1593.710327148438	470.4436645507815	53.47544097900393	1431.1962890625	240.8721008300782	102.0862350463868	1375.67431640625	37.58334350585939	-108.6270065307618	1365.82958984375	-10.1139144897461	99.09487152099615	1166.886474609375	93.8920593261719	53.47554397583011	1431.196411132813	240.8721008300782	53.47542953491214	1431.1962890625	240.8721008300782	-162.8984069824219	1421.640014648438	260.9886779785157	33.67081451416017	1423.888671875	24.38189697265626	63.66247177124026	1214.012329101563	247.2712249755861	248.8600311279298	1105.669921875	457.9991760253909	523.6443481445315	1184.70947265625	407.5491333007815	210.4825744628907	1057.9384765625	174.1897888183594	163.3052368164063	1380.939453125	423.2729492187502	172.9854736328126	844.9219360351567	512.111999511719	418.297546386719	769.2944946289067	491.6593933105471	138.9467163085938	802.5866699218755	260.3880004882814	243.548797607422	1087.41748046875	461.787048339844	147.9336700439454	688.7701416015627	561.7322998046877	125.133529663086	741.8010253906252	717.1062011718752	310.1857299804689	672.112243652344	591.2272949218752	172.9854888916016	844.921997070313	512.1120605468752	66.05781555175784	1097.302978515625	-39.04306793212892	343.1923217773439	1085.620971679688	-126.9081573486329	-14.92796325683594	1181.167114257813	-305.6296691894532	102.0862274169922	1375.67431640625	37.58335876464845	-149.2457885742188	927.3606567382817	-27.09767913818361	-7.642959594726566	740.8123168945315	-128.8002319335938	-220.3142089843751	1000.954833984375	-261.0383605957032	50.98652648925784	1085.406982421875	-38.20689773559572	-266.865447998047	818.7951049804692	-36.34400558471681	-310.9856872558595	878.6911621093755	-178.3729705810547	-366.4916381835939	920.443237304688	37.47091293334962	-149.2457275390626	927.360717773438	-27.09769248962404	208.8570556640626	837.8914184570317	527.231628417969	-73.26737213134768	320.206024169922	440.9752197265627	64.479606628418	1009.844421386719	359.9673767089845	42.02468872070314	750.1341552734377	449.7799987792971	-21.87701225280762	522.615173339844	412.8930664062502	248.1969757080079	1010.50244140625	175.9479980468751	46.51221466064455	1430.888793945313	241.5194549560548	264.3613891601564	1331.566528320313	166.8903045654297	250.491424560547	1013.788330078125	313.7884521484376	254.3933563232423	1236.396850585938	229.0674896240236	-4.59670925140381	10.92833900451661	18.87443923950196	0.5543089509010317	-21.36793899536134	-3.338630199432375	0	0	1.083316683769227	-2.22624969482422	10.36345863342286	1.101277232170105	2.508573293685914	17.34380722045899	-14.30970859527589	-1.236000180244446	-4.89873790740967	5.345848083496096	3.379022359848024	-15.26341724395753	15.07667064666749	0	0	14.5329179763794	0.05711360648274424	-1.838909149169923	0.7486667037010195	-0.05711360648274424	1.838909149169923	0.7486667037010195	-2.155834674835206	-1.440611004829407	-112.3847808837891	-0.4725365042686465	-1.177549600601197	-84.78296661376956	-1.657833814620973	1.373775959014893	-9.173637390136722	1.657833814620973	-1.373775959014893	-9.173637390136722	1.800001144409181	-3.412418127059938	1.778745293617249	-1.800001144409181	3.412418127059938	1.778745293617249	6.745670795440677	-2.852553606033326	-13.91047286987305	-1.590277359294756e-15	1.633214830737418e-12	33.34183883666994	6.763791561126713	106.787452697754	-6.296884059906009	17.97500038146973	10.4445276260376	8.097051620483402	1.987846778527784e-15	-3.444540659647279e-12	47.3252296447754	3.546457290649416	93.79912567138675	-6.376343250274662	-1.68581509590149	5.308736324310305	2.685506820678712	1.68581509590149	-5.308736324310305	2.685506820678712	-0.6580682992935183	3.878030300140383	6.580698013305668	0.6580682992935183	-3.878030300140383	6.580698013305668	0	-0.2028035372495652	0	0	-1.035652160644532	0	0	-0.01210775133222342	0	0	-0.4284370839595797	0	0	0.2389977425336839	0	0	-1.4464830160141	0	0	-0.0351553224027157	0	0	-0.0351553224027157	0	0	0.1671990603208542	0	0	0.1671990603208542	0	0	-0.002276303945109249	0	0	-0.007650235667824749	0	0	-0.008604230359196666	0	0	-0.0002191611711168663	0	0	-0.0004328440118115397	0	0	3.397496038815008e-05	0	nan	nan	nan	nan	nan	nan	-0.6339005231857302	11.28214931488037	0.6380674839019778	-6.504255771636966	115.0066146850587	-6.461779117584232	-0.05605389177799228	-0.4020231962203982	-0.1819878071546555	-0.5502763986587527	0.4107513129711153	11.11695289611817	-1.240461587905884	-10.11837005615235	2.911452531814576	-0.1487478911876679	0.7235562801361086	-0.9655673503875737	-1.74620807170868	-9.174233436584476	1.92630434036255	-0.2070724666118623	1.638619780540467	-0.6183741688728335	-1.199185371398926	-6.62777948379517	-0.7546054124832158	-1.199185371398926	-6.62777948379517	-0.7546054124832158	-0.9576123952865605	-1.896261930465699	-0.6072574853897097	-0.9576123952865605	-1.896261930465699	-0.6072574853897097	-0.1015151366591454	0.5152139663696291	0.05581010505557063	0.05218830332159999	0.4607889950275423	0.07272121310234073	-0.03865937888622285	0.2043240070343019	-0.1107692494988442	0.003460962092503907	0.1831155121326447	-0.07777539640665057	-0.01975659281015397	0.05761827528476718	0.02525518648326398	0.003513415809720756	0.0507972911000252	0.003950043115764858	nan	nan	nan	505.3849792480471	53.125602722168	-286.0064697265626	2.273736703610345e-15	14.28365993499757	-4.413172721862795	-3.837210655212404	86.76177215576175	1614.442504882813	92.00064086914065	64.53953552246097	-277.7478942871095	-69.91150665283206	14.4283151626587	-420.5816650390627	804.4266967773442	64.02555847167972	-543.416442871094	-339.9862670898439	-1.8494770526886	732.715270996094	-223.1074676513673	-124.4622497558594	164.3166503906251	223.1074676513673	124.4622497558594	164.3166503906251	-720.0997314453127	50.29081344604495	847.4699096679692	720.0997314453127	-50.29081344604495	847.4699096679692	24.41281127929689	-3.512516260147097	-10.52302551269532	1.617911577224732	-0.1299949288368226	27.04188728332521	6.915603160858158	0.3453739881515504	-21.12457656860352	0.1973335295915605	0.02225802652537823	-5.995299816131594	1.370149016380311	-3.315866114331018e-16	1.694427728652955	-0.146112471818924	1.18423795469632e-16	0.2623898386955262	111.8120346069337	993.473754882813	250.0261993408204	111.8120346069337	0	250.0261993408204	
